<?xml version="1.0" encoding="utf-8"?>
<!-- Generator: Adobe Illustrator 25.2.1, SVG Export Plug-In . SVG Version: 6.00 Build 0)  -->
<svg version="1.1" id="Layer_1" xmlns="http://www.w3.org/2000/svg" xmlns:xlink="http://www.w3.org/1999/xlink" x="0px" y="0px"
	 viewBox="0 0 481.89 110.71" style="enable-background:new 0 0 481.89 110.71;" xml:space="preserve">
<style type="text/css">
	.st0{fill-rule:evenodd;clip-rule:evenodd;}
	.st1{fill-rule:evenodd;clip-rule:evenodd;fill:#FFFFFF;}
	.st2{fill:#475830;}
	.st3{fill:#C2D82E;}
	.st4{fill-rule:evenodd;clip-rule:evenodd;fill:#C2D82E;}
</style>
<rect y="0" class="st0" width="481.89" height="110.71"/>
<path class="st1" d="M450.46,69.35c-4.46,0.59-6.98,4.06-5.72,7.67c0.84,2.36,4.38,4.21,7.57,3.87c6.73-0.84,10.43-5.28,9.59-12.35
	C458.04,68.82,454.32,69,450.46,69.35 M468.18,85.61c-2.02,0-4.09,0-6.28,0c0-1.77,0-4.23,0-5.66c-1.75,2.36-3.95,4.14-6.31,5.24
	c-4.16,1.58-9.22,1.28-13.21-1.09c-6.06-4.08-6.04-14.57,0.98-18c4.65-2.28,13.32-2.05,18.54-2.45c0.45-5.02-0.93-8.5-4.8-9.68
	c-3.21-0.94-7.53-0.65-9.97,1.99c-1.04,1.13-1.5,2.28-1.74,3.39h-6.04c0.17-3.62,1.68-6.39,4.38-8.41
	c4.96-3.87,14.05-4.12,19.35-0.76c2.86,1.85,5.02,5.13,5.1,8.49C468.43,67.88,468.18,76.41,468.18,85.61z"/>
<path class="st1" d="M375.32,63.73c0-5.47-3.87-10.01-9.09-10.18c-5.81-0.17-10.35,3.95-10.69,10.18
	C362.14,63.73,368.73,63.73,375.32,63.73 M355.63,68.87c-0.84,6.14,3.87,11.61,9.84,11.78c1.07,0.02,1.97-0.01,2.75-0.1
	c3.82-0.45,5.5-2.8,7.32-5.7c1.9,0,3.93,0,5.83,0c-0.5,3.37-2.1,5.81-4.46,7.83c-6.14,5.22-18.17,5.22-23.81-1.94
	c-2.27-2.86-3.45-6.14-3.95-9.68c-0.5-4.04-0.34-8.16,1.09-12.12c2.44-6.82,7.83-11.78,17.5-10.94c6.82,0.59,12.03,5.13,13.63,13.13
	c0.51,2.44,0.76,4.96,0.67,7.74C373.19,68.87,364.49,68.87,355.63,68.87z"/>
<path class="st1" d="M163.19,67.12c-2-0.04-12.87,0.56-16.06,1.69c-2.02,0.72-3.86,2.33-4.6,4.15c-0.91,2.25-0.63,4.93,1.31,6.93
	c3.45,3.7,10.77,3.7,15.15,0.17c1.92-1.51,3.07-2.88,3.67-4.81C163.23,73.44,163.46,68.99,163.19,67.12 M139.37,59.4
	c0.08-5.22,4.14-9.8,9.86-10.98c4.04-0.84,8.08-0.76,11.86,1.18c4.46,2.36,6.06,6.31,6.14,10.94c0.09,8.33,0,16.66,0,24.99
	c-1.26,0-2.52,0-3.95,0c0-1.94,0-4.49,0-6.26c-0.09,0.1-0.22-0.07-0.29,0.04c-1.89,3.21-6.53,6.41-10.96,6.89
	c-3.67,0.4-7.48-0.48-10.21-2.61c-5.22-3.95-5.55-13.88,1.94-17.16c3.53-1.51,7.4-1.6,11.11-1.94c2.27-0.25,4.46-0.34,6.73-0.42
	c0.63,0,1.32,0.21,1.6-0.08c0.28-0.29,0.13-1.1,0.09-1.77c-0.17-2.36-0.08-4.8-1.51-6.9c-3.06-4.29-9.75-4.81-14.14-2.36
	c-3.74,1.95-4.04,4.46-4.66,6.43H139.37z"/>
<path class="st1" d="M288.41,67.12c-2-0.04-12.87,0.56-16.06,1.69c-2.02,0.72-3.86,2.33-4.6,4.15c-0.91,2.25-0.63,4.93,1.31,6.93
	c3.45,3.7,10.77,3.7,15.15,0.17c1.92-1.51,3.07-2.88,3.67-4.81C288.45,73.44,288.68,68.99,288.41,67.12 M264.59,59.4
	c0.08-5.22,4.14-9.8,9.86-10.98c4.04-0.84,8.08-0.76,11.86,1.18c4.46,2.36,6.06,6.31,6.14,10.94c0.09,8.33,0,16.66,0,24.99
	c-1.26,0-2.52,0-3.95,0c0-1.94,0-4.49,0-6.26c-0.09,0.1-0.22-0.07-0.29,0.04c-1.89,3.21-6.53,6.41-10.96,6.89
	c-3.67,0.4-7.48-0.48-10.21-2.61c-5.22-3.95-5.55-13.88,1.94-17.16c3.53-1.51,7.4-1.6,11.11-1.94c2.27-0.25,4.46-0.34,6.73-0.42
	c0.63,0,1.32,0.21,1.6-0.08c0.28-0.29,0.13-1.1,0.09-1.77c-0.17-2.36-0.08-4.8-1.51-6.9c-3.06-4.29-9.75-4.81-14.14-2.36
	c-3.74,1.95-4.04,4.46-4.66,6.43H264.59z"/>
<path class="st1" d="M221.59,85.61c-1.43,0-2.61,0-4.04,0c0-0.76,0-1.35,0-2.02c0-15.57,0-31.22,0-46.78c0-1.26-0.07-1.48-0.06-2.44
	c1.31,0,2.72,0,4.09,0c0,10.6,0,21.12,0,32.14c1.09-1.01,1.85-1.68,2.61-2.36c4.13-3.85,12.52-11.88,16.61-15.48
	c1.28,0,4.19,0,5.01,0c-5.15,4.98-10.44,9.81-15.65,14.72c-0.47,0.43-0.74,0.77-0.79,1.14c-0.04,0.36,0.12,0.76,0.54,1.3
	c5.05,5.97,10.01,12.03,14.98,18.17c0.34,0.42,0.87,1.09,1.21,1.6c-1.66,0-3.05,0.03-4.58,0l-14.89-17.84
	c-0.17-0.25-0.42-0.37-0.67-0.71c-0.69,0.62-3.44,2.99-4.19,4.05c-0.18,0.2-0.13,1.02-0.13,1.36c-0.08,3.7-0.05,7.4-0.05,11.11
	C221.59,84.26,221.59,84.85,221.59,85.61z"/>
<path class="st1" d="M316.84,53.72c-1.85,0-3.53,0-5.3,0c0-1.77,0-3.37,0-5.13c1.77,0,3.45,0,5.3,0c0-3.37,0-6.56,0-9.93
	c2.27,0,4.38,0,6.65,0c0,3.2,0,6.48,0,9.93c1.94,0,5.22,0,7.07,0v5.13c-2.36,0-4.63,0-7.07,0c0,1.6,0,3.03,0,4.38
	c0,5.89,0,11.78,0,17.67c0,4.04,1.51,5.47,5.55,5.3c0.42,0,0.84,0,1.51,0v4.76c-0.57,0.31-7.99,0.58-10.04-1.02
	c-0.8-0.63-1.59-1.18-2.12-1.99c-0.79-1.2-1.18-2.69-1.22-4.27c-0.25-7.49-0.25-14.89-0.34-22.38
	C316.84,55.35,316.84,54.53,316.84,53.72"/>
<path class="st1" d="M403.08,48.67c1.94,0,3.87,0,5.97,0c0,1.6,0,4.46,0,6.06c0.57-1.18,2.2-3.91,2.63-4.34
	c1.87-1.91,4.36-2.72,7.47-2.48c1.01,0.08,1.35,0.42,1.35,1.43c-0.08,1.51-0.08,3.11-0.08,4.63c-1.35,0-2.52-0.08-3.62,0
	c-5.62,0.22-7.55,4.39-7.66,9.34c-0.16,7.44,0,14.83,0,22.22c-2.1,0-4.04,0-6.06,0C403.08,73.33,403.08,61.04,403.08,48.67z"/>
<path class="st1" d="M193.91,85.61c-1.26,0-2.36,0-3.62,0c0-17.08,0-34.16,0-51.24c1.18,0,2.36,0,3.62,0
	C193.91,51.37,193.91,68.45,193.91,85.61z"/>
<path class="st2" d="M80.11,53.46L57.8,14.73L13.16,92.2h89.28L80.11,53.46z M58.9,11.56l47.94,83.19H8.75L57.8,9.65L58.9,11.56z"/>
<path class="st3" d="M57.8,15.77c-6.53,9.88-14.05,22.08-19.62,42.33c-1.05,3.82-1.53,7.36-1.53,10.6c0,5.86,1.6,10.66,4.29,14.27
	c2.66,3.58,6.4,6.03,10.7,7.21c1.96,0.54,4.06,0.81,6.25,0.81c2.18,0,4.27-0.27,6.22-0.81c4.28-1.18,7.99-3.61,10.62-7.18
	c2.66-3.6,4.24-8.38,4.24-14.22c0-3.26-0.49-6.83-1.55-10.69C71.85,37.85,64.32,25.64,57.8,15.77 M58.98,10.4
	C69.25,26,76.05,38.23,81.23,57.06c1.17,4.24,1.7,8.16,1.7,11.72c0,6.73-1.88,12.31-5.03,16.57c-3.18,4.3-7.63,7.23-12.76,8.64
	c-2.32,0.64-4.76,0.96-7.26,0.96c-2.5,0-4.95-0.33-7.28-0.97c-5.15-1.42-9.64-4.36-12.84-8.67c-3.18-4.28-5.08-9.88-5.08-16.63
	c0-3.54,0.53-7.43,1.69-11.63C39.54,38.23,46.34,26,56.61,10.4c0.27-0.41,0.69-0.64,1.18-0.64C58.29,9.76,58.71,9.99,58.98,10.4z"/>
<path class="st3" d="M58.88,47.13c-0.47,0.35-1.13,0.26-1.48-0.21c-0.35-0.47-0.26-1.13,0.21-1.48l23-17.28
	c0.47-0.35,1.13-0.26,1.48,0.21c0.35,0.47,0.26,1.13-0.21,1.48L58.88,47.13z"/>
<path class="st3" d="M57.84,62.83c0.52,0.26,0.74,0.9,0.48,1.42c-0.26,0.53-0.9,0.74-1.42,0.48L34.27,53.45
	c-0.53-0.26-0.74-0.9-0.48-1.42c0.26-0.52,0.9-0.74,1.42-0.48L57.84,62.83z"/>
<rect x="56.55" y="13.91" class="st4" width="2.51" height="78.94"/>
</svg>
