<?xml version="1.0" encoding="utf-8"?>
<!-- Generator: Adobe Illustrator 25.2.1, SVG Export Plug-In . SVG Version: 6.00 Build 0)  -->
<svg version="1.1" id="Layer_1" xmlns="http://www.w3.org/2000/svg" xmlns:xlink="http://www.w3.org/1999/xlink" x="0px" y="0px"
	 viewBox="0 0 481.89 481.89" style="enable-background:new 0 0 481.89 481.89;" xml:space="preserve">
<style type="text/css">
	.st0{fill-rule:evenodd;clip-rule:evenodd;}
	.st1{fill:#475830;}
	.st2{fill:#C2D82E;}
	.st3{fill-rule:evenodd;clip-rule:evenodd;fill:#C2D82E;}
</style>
<path class="st0" d="M416.76,401.02c-5.32,0.7-8.34,4.84-6.83,9.16c1,2.81,5.22,5.02,9.04,4.62c8.03-1,12.45-6.31,11.45-14.74
	C425.81,400.38,421.37,400.6,416.76,401.02 M437.91,420.42c-2.41,0-4.88,0-7.49,0c0-2.11,0-5.04,0-6.75
	c-2.09,2.81-4.72,4.94-7.53,6.25c-4.96,1.89-11.01,1.53-15.77-1.31c-7.24-4.87-7.21-17.38,1.17-21.48
	c5.55-2.72,15.9-2.45,22.13-2.92c0.54-5.99-1.11-10.14-5.73-11.55c-3.83-1.12-8.98-0.78-11.9,2.38c-1.24,1.34-1.79,2.72-2.08,4.05
	h-7.21c0.2-4.32,2.01-7.63,5.22-10.04c5.93-4.62,16.77-4.92,23.1-0.9c3.41,2.21,5.99,6.12,6.09,10.14
	C438.22,399.26,437.91,409.44,437.91,420.42z"/>
<path class="st0" d="M327.08,394.31c0-6.53-4.62-11.95-10.85-12.15c-6.93-0.2-12.35,4.72-12.75,12.15
	C311.34,394.31,319.21,394.31,327.08,394.31 M303.58,400.44c-1,7.33,4.62,13.86,11.75,14.06c1.28,0.03,2.35-0.01,3.28-0.12
	c4.56-0.53,6.56-3.34,8.74-6.81c2.27,0,4.69,0,6.96,0c-0.6,4.02-2.51,6.93-5.32,9.34c-7.33,6.23-21.69,6.23-28.42-2.31
	c-2.71-3.41-4.12-7.33-4.72-11.55c-0.6-4.82-0.4-9.74,1.31-14.46c2.91-8.13,9.34-14.06,20.89-13.06c8.13,0.7,14.36,6.13,16.27,15.67
	c0.6,2.91,0.9,5.92,0.8,9.24C324.53,400.44,314.16,400.44,303.58,400.44z"/>
<path class="st0" d="M73.9,398.35c-2.39-0.05-15.36,0.67-19.17,2.02c-2.41,0.86-4.61,2.78-5.49,4.95c-1.09,2.68-0.76,5.89,1.57,8.28
	c4.12,4.42,12.85,4.42,18.08,0.2c2.3-1.8,3.66-3.44,4.38-5.75C73.94,405.89,74.22,400.58,73.9,398.35 M45.47,389.13
	c0.1-6.23,4.94-11.69,11.77-13.1c4.82-1,9.64-0.9,14.16,1.41c5.32,2.81,7.23,7.53,7.33,13.06c0.1,9.94,0,19.88,0,29.83
	c-1.51,0-3.01,0-4.72,0c0-2.31,0-5.36,0-7.47c-0.11,0.12-0.26-0.09-0.34,0.05c-2.25,3.83-7.8,7.65-13.08,8.23
	c-4.38,0.48-8.93-0.57-12.19-3.11c-6.23-4.72-6.63-16.57,2.31-20.49c4.22-1.81,8.84-1.91,13.26-2.31c2.71-0.3,5.32-0.4,8.03-0.5
	c0.75,0,1.58,0.25,1.9-0.1c0.33-0.35,0.15-1.31,0.1-2.11c-0.2-2.81-0.1-5.72-1.81-8.23c-3.65-5.12-11.63-5.74-16.87-2.81
	c-4.47,2.33-4.82,5.32-5.57,7.68H45.47z"/>
<path class="st0" d="M223.35,398.35c-2.39-0.05-15.36,0.67-19.17,2.02c-2.41,0.86-4.61,2.78-5.49,4.95
	c-1.09,2.68-0.76,5.89,1.57,8.28c4.12,4.42,12.85,4.42,18.08,0.2c2.3-1.8,3.66-3.44,4.39-5.75
	C223.4,405.89,223.67,400.58,223.35,398.35 M194.92,389.13c0.1-6.23,4.94-11.69,11.77-13.1c4.82-1,9.64-0.9,14.16,1.41
	c5.32,2.81,7.23,7.53,7.33,13.06c0.1,9.94,0,19.88,0,29.83c-1.51,0-3.01,0-4.72,0c0-2.31,0-5.36,0-7.47
	c-0.11,0.12-0.26-0.09-0.34,0.05c-2.25,3.83-7.8,7.65-13.08,8.23c-4.38,0.48-8.93-0.57-12.19-3.11c-6.23-4.72-6.63-16.57,2.31-20.49
	c4.22-1.81,8.84-1.91,13.26-2.31c2.71-0.3,5.32-0.4,8.03-0.5c0.75,0,1.58,0.25,1.9-0.1c0.33-0.35,0.15-1.31,0.1-2.11
	c-0.2-2.81-0.1-5.72-1.81-8.23c-3.65-5.12-11.63-5.74-16.87-2.81c-4.47,2.33-4.82,5.32-5.57,7.68H194.92z"/>
<path class="st0" d="M143.6,420.42c-1.71,0-3.11,0-4.82,0c0-0.9,0-1.61,0-2.41c0-18.58,0-37.26,0-55.84c0-1.5-0.08-1.77-0.07-2.91
	c1.57,0,3.25,0,4.89,0c0,12.65,0,25.21,0,38.36c1.31-1.21,2.21-2.01,3.11-2.81c4.93-4.6,14.95-14.18,19.83-18.48c1.53,0,5,0,5.98,0
	c-6.15,5.94-12.46,11.71-18.68,17.57c-0.56,0.51-0.89,0.92-0.94,1.36c-0.05,0.43,0.15,0.91,0.64,1.55
	c6.03,7.13,11.95,14.36,17.88,21.69c0.4,0.5,1.04,1.31,1.44,1.91c-1.98,0-3.64,0.03-5.46,0l-17.77-21.29c-0.2-0.3-0.5-0.44-0.8-0.84
	c-0.83,0.73-4.1,3.57-5,4.84c-0.22,0.23-0.16,1.22-0.16,1.63c-0.1,4.42-0.06,8.84-0.06,13.26
	C143.6,418.81,143.6,419.52,143.6,420.42z"/>
<path class="st0" d="M257.28,382.36c-2.21,0-4.22,0-6.33,0c0-2.11,0-4.02,0-6.13c2.11,0,4.12,0,6.33,0c0-4.02,0-7.83,0-11.85
	c2.71,0,5.22,0,7.93,0c0,3.82,0,7.73,0,11.85c2.31,0,6.23,0,8.44,0v6.13c-2.81,0-5.52,0-8.44,0c0,1.91,0,3.62,0,5.22
	c0,7.03,0,14.06,0,21.09c0,4.82,1.81,6.53,6.63,6.33c0.5,0,1,0,1.81,0v5.69c-0.68,0.38-9.53,0.7-11.98-1.22
	c-0.96-0.75-1.9-1.41-2.53-2.37c-0.94-1.44-1.41-3.21-1.46-5.1c-0.3-8.94-0.3-17.78-0.4-26.71
	C257.28,384.3,257.28,383.33,257.28,382.36"/>
<path class="st0" d="M360.22,376.33c2.31,0,4.62,0,7.13,0c0,1.91,0,5.33,0,7.23c0.68-1.41,2.63-4.66,3.14-5.18
	c2.23-2.28,5.21-3.25,8.92-2.96c1.2,0.1,1.61,0.5,1.61,1.71c-0.1,1.81-0.1,3.72-0.1,5.52c-1.61,0-3.01-0.1-4.32,0
	c-6.71,0.27-9.01,5.23-9.14,11.14c-0.19,8.88,0,17.71,0,26.52c-2.51,0-4.82,0-7.23,0C360.22,405.76,360.22,391.1,360.22,376.33z"/>
<path class="st0" d="M110.56,420.42c-1.51,0-2.81,0-4.32,0c0-20.39,0-40.77,0-61.16c1.41,0,2.81,0,4.32,0
	C110.56,379.55,110.56,399.93,110.56,420.42z"/>
<path class="st1" d="M306.93,190.11l-65.98-114.5L108.97,304.61h263.94L306.93,190.11z M244.2,66.22l141.73,245.94H95.96
	L240.94,60.57L244.2,66.22z"/>
<path class="st2" d="M240.94,78.67c-19.3,29.19-41.55,65.28-58,125.15c-3.1,11.28-4.53,21.75-4.53,31.32
	c0,17.32,4.74,31.51,12.68,42.2c7.87,10.59,18.93,17.83,31.64,21.32c5.79,1.59,12,2.41,18.46,2.41c6.45,0,12.62-0.81,18.38-2.39
	c12.64-3.47,23.61-10.68,31.4-21.23c7.86-10.63,12.54-24.77,12.54-42.04c0-9.65-1.44-20.2-4.57-31.59
	C282.49,143.95,260.24,107.86,240.94,78.67 M244.44,62.8c30.36,46.13,50.47,82.27,65.78,137.95c3.44,12.53,5.03,24.11,5.03,34.66
	c0,19.89-5.55,36.38-14.88,49c-9.39,12.7-22.56,21.37-37.73,25.54c-6.86,1.89-14.07,2.85-21.45,2.85c-7.4,0-14.64-0.97-21.53-2.87
	c-15.23-4.19-28.49-12.89-37.96-25.63c-9.4-12.65-15.02-29.21-15.02-49.16c0-10.48,1.57-21.97,4.99-34.39
	c15.3-55.67,35.41-91.83,65.78-137.95c0.8-1.21,2.05-1.89,3.5-1.89C242.4,60.91,243.65,61.59,244.44,62.8z"/>
<path class="st2" d="M244.15,171.38c-1.38,1.04-3.35,0.76-4.38-0.63c-1.04-1.38-0.76-3.35,0.63-4.38l68-51.09
	c1.38-1.04,3.35-0.76,4.38,0.63c1.04,1.38,0.76,3.35-0.63,4.38L244.15,171.38z"/>
<path class="st2" d="M241.08,217.8c1.55,0.77,2.18,2.66,1.41,4.21c-0.77,1.55-2.66,2.18-4.21,1.41l-66.89-33.36
	c-1.55-0.77-2.18-2.66-1.41-4.21c0.77-1.55,2.66-2.18,4.21-1.41L241.08,217.8z"/>
<rect x="237.25" y="73.16" class="st3" width="7.43" height="233.37"/>
</svg>
