<svg xmlns="http://www.w3.org/2000/svg" viewBox="0 0 206 64" width="206" height="64">
  <g transform="translate(8,11)">
    <path d="M21 3 C 27.5 14.5 33 18.5 33 23 A 11.2 11.2 0 1 1 9 23 C 9 18.5 14.5 14.5 21 3 Z" fill="none" stroke="#205E40" stroke-width="2.6"></path>
    <line x1="21" y1="9.5" x2="21" y2="35" stroke="#205E40" stroke-width="2.3" stroke-linecap="round"></line>
    <line x1="21" y1="21.5" x2="27" y2="15.5" stroke="#205E40" stroke-width="2.3" stroke-linecap="round"></line>
    <line x1="21" y1="21.5" x2="15" y2="15.5" stroke="#205E40" stroke-width="2.3" stroke-linecap="round"></line>
  </g>
  <path fill="#1A1B1D" d="M58.61 43.51L58.61 43.51Q56.93 43.51 55.60 42.86Q54.28 42.22 53.52 40.93Q52.76 39.65 52.76 37.73L52.76 37.73Q52.76 36.21 53.32 35.10Q53.89 33.99 55.04 33.23Q56.19 32.47 57.98 31.98Q59.77 31.49 62.23 31.14L62.23 31.14Q63.60 30.95 64.47 30.75Q65.35 30.56 65.76 30.13Q66.17 29.70 66.17 28.84L66.17 28.84Q66.17 27.52 65.25 26.56Q64.34 25.61 62.31 25.61L62.31 25.61Q61.18 25.61 60.07 26.00Q58.96 26.39 58.16 27.26Q57.36 28.14 57.08 29.62L57.08 29.62L53.26 28.41Q53.61 26.93 54.39 25.78Q55.17 24.63 56.34 23.83Q57.51 23.03 59.05 22.62Q60.59 22.21 62.43 22.21L62.43 22.21Q65.12 22.21 66.87 23.11Q68.63 24.01 69.51 25.86Q70.38 27.71 70.38 30.60L70.38 30.60L70.38 34.73Q70.38 36.02 70.44 37.44Q70.50 38.87 70.60 40.29Q70.69 41.71 70.85 43L70.85 43L66.99 43Q66.87 41.83 66.78 40.58Q66.68 39.33 66.60 38.05L66.60 38.05L66.02 38.05Q65.47 39.53 64.47 40.78Q63.48 42.02 62.02 42.77Q60.55 43.51 58.61 43.51ZM60.09 40.23L60.09 40.23Q60.91 40.23 61.74 39.96Q62.58 39.69 63.42 39.12Q64.26 38.55 64.98 37.66Q65.70 36.76 66.25 35.51L66.25 35.51L66.21 32.70Q65.90 32.82 65.59 32.94L65.59 32.94Q64.57 33.25 63.40 33.43Q62.23 33.60 61.08 33.82Q59.93 34.03 58.98 34.40Q58.02 34.77 57.45 35.43Q56.89 36.10 56.89 37.27L56.89 37.27Q56.89 38.71 57.79 39.47Q58.68 40.23 60.09 40.23ZM79.04 43L74.87 43L74.87 15.50L79.04 15.50L79.04 43ZM87.89 43L83.72 43L83.72 15.47L87.89 15.47L87.89 31.03Q89.34 30.25 90.64 29.21Q91.95 28.18 93.06 27.05Q94.17 25.92 95.01 24.81Q95.85 23.70 96.32 22.72L96.32 22.72L101.23 22.72Q100.53 24.20 99.46 25.66Q98.38 27.13 97.02 28.39Q95.65 29.66 94.04 30.58Q92.42 31.49 90.66 31.85L90.66 31.85L90.66 32.35Q92.85 32.12 94.41 32.70Q95.97 33.29 97.10 34.46Q98.23 35.63 99.11 37.17Q99.98 38.71 100.76 40.31L100.76 40.31L101.86 43L97.18 43L96.40 41.17Q95.54 39.18 94.58 37.64Q93.63 36.10 92.32 35.20Q91.01 34.30 89.10 34.30L89.10 34.30L87.89 34.30L87.89 43ZM109.11 43.51L109.11 43.51Q107.43 43.51 106.11 42.86Q104.78 42.22 104.02 40.93Q103.26 39.65 103.26 37.73L103.26 37.73Q103.26 36.21 103.83 35.10Q104.39 33.99 105.54 33.23Q106.69 32.47 108.49 31.98Q110.28 31.49 112.74 31.14L112.74 31.14Q114.10 30.95 114.98 30.75Q115.86 30.56 116.27 30.13Q116.68 29.70 116.68 28.84L116.68 28.84Q116.68 27.52 115.76 26.56Q114.84 25.61 112.81 25.61L112.81 25.61Q111.68 25.61 110.57 26.00Q109.46 26.39 108.66 27.26Q107.86 28.14 107.59 29.62L107.59 29.62L103.77 28.41Q104.12 26.93 104.90 25.78Q105.68 24.63 106.85 23.83Q108.02 23.03 109.56 22.62Q111.10 22.21 112.93 22.21L112.93 22.21Q115.62 22.21 117.38 23.11Q119.13 24.01 120.01 25.86Q120.89 27.71 120.89 30.60L120.89 30.60L120.89 34.73Q120.89 36.02 120.95 37.44Q121.00 38.87 121.10 40.29Q121.20 41.71 121.36 43L121.36 43L117.49 43Q117.38 41.83 117.28 40.58Q117.18 39.33 117.10 38.05L117.10 38.05L116.52 38.05Q115.97 39.53 114.98 40.78Q113.98 42.02 112.52 42.77Q111.06 43.51 109.11 43.51ZM110.59 40.23L110.59 40.23Q111.41 40.23 112.25 39.96Q113.09 39.69 113.93 39.12Q114.77 38.55 115.49 37.66Q116.21 36.76 116.75 35.51L116.75 35.51L116.72 32.70Q116.40 32.82 116.09 32.94L116.09 32.94Q115.08 33.25 113.91 33.43Q112.74 33.60 111.59 33.82Q110.44 34.03 109.48 34.40Q108.52 34.77 107.96 35.43Q107.39 36.10 107.39 37.27L107.39 37.27Q107.39 38.71 108.29 39.47Q109.19 40.23 110.59 40.23Z"></path>
  <path fill="#1A1B1D" d="M132.63 43.47L132.63 43.47Q129.19 43.47 127.58 41.65Q125.96 39.84 125.96 35.86L125.96 35.86L125.96 26.93L122.99 26.93L123.07 22.52L125.14 22.52Q126.35 22.52 126.93 22.17Q127.52 21.82 127.63 20.89L127.63 20.89L128.14 17.96L131.34 17.96L131.34 22.52L136.53 22.52L136.53 27.09L131.34 27.09L131.34 35.63Q131.34 37.03 132.00 37.66Q132.67 38.28 134.03 38.28L134.03 38.28Q134.77 38.28 135.45 38.13Q136.14 37.97 136.64 37.62L136.64 37.62L136.64 42.84Q135.44 43.23 134.42 43.35Q133.41 43.47 132.63 43.47ZM148.85 43.55L148.85 43.55Q146.32 43.55 144.35 42.84Q142.38 42.14 141.01 40.82Q139.65 39.49 138.93 37.54Q138.20 35.59 138.20 33.13L138.20 33.13Q138.20 30.71 138.89 28.67Q139.57 26.62 140.89 25.12Q142.22 23.62 144.13 22.80Q146.04 21.98 148.46 21.98L148.46 21.98Q150.80 21.98 152.63 22.74Q154.47 23.50 155.70 25.02Q156.92 26.54 157.49 28.75Q158.06 30.95 157.90 33.80L157.90 33.80L143.59 33.95Q143.74 36.56 145.03 37.89L145.03 37.89Q146.47 39.45 148.85 39.45L148.85 39.45Q149.94 39.45 150.70 39.16Q151.46 38.87 151.95 38.40Q152.44 37.93 152.73 37.34Q153.02 36.76 153.22 36.17L153.22 36.17L158.09 37.23Q157.74 38.67 157.06 39.82Q156.38 40.97 155.25 41.81Q154.12 42.65 152.54 43.10Q150.96 43.55 148.85 43.55ZM143.74 30.87L143.74 30.87L152.75 30.75Q152.71 29.70 152.40 28.92L152.40 28.92Q151.85 27.59 150.82 26.97Q149.79 26.35 148.54 26.35L148.54 26.35Q147.06 26.35 145.93 27.13Q144.79 27.91 144.17 29.39L144.17 29.39Q143.90 30.09 143.74 30.87ZM166.48 43L160.82 43L160.82 22.52L165.47 22.52L165.50 29.51L166.25 29.51Q166.56 26.89 167.32 25.25Q168.08 23.62 169.44 22.84Q170.81 22.06 172.84 22.06L172.84 22.06Q173.19 22.06 173.60 22.08Q174.01 22.10 174.55 22.21L174.55 22.21L174.32 28.18Q173.73 27.91 173.03 27.79Q172.33 27.67 171.78 27.67L171.78 27.67Q170.26 27.67 169.17 28.38Q168.08 29.08 167.40 30.38Q166.71 31.69 166.48 33.56L166.48 33.56L166.48 43ZM181.38 43.55L181.38 43.55Q179.66 43.55 178.34 42.86Q177.01 42.18 176.27 40.89Q175.53 39.61 175.53 37.70L175.53 37.70Q175.53 36.02 176.17 34.89Q176.81 33.76 178.06 33.05Q179.31 32.35 181.14 31.88Q182.98 31.42 185.32 31.07L185.32 31.07Q186.56 30.87 187.36 30.70Q188.16 30.52 188.55 30.11Q188.94 29.70 188.94 28.92L188.94 28.92Q188.94 27.83 188.16 27.05Q187.38 26.27 185.71 26.27L185.71 26.27Q184.57 26.27 183.62 26.66Q182.66 27.05 181.98 27.83Q181.30 28.61 180.99 29.82L180.99 29.82L176.03 28.30Q176.50 26.70 177.38 25.53Q178.26 24.36 179.50 23.56Q180.75 22.76 182.35 22.37Q183.95 21.98 185.82 21.98L185.82 21.98Q188.83 21.98 190.72 22.93Q192.61 23.89 193.55 25.90Q194.48 27.91 194.48 31.07L194.48 31.07L194.48 34.58Q194.48 35.94 194.54 37.34Q194.60 38.75 194.70 40.17Q194.79 41.60 194.91 43L194.91 43L189.96 43Q189.80 42.02 189.66 40.76Q189.53 39.49 189.45 38.20L189.45 38.20L188.75 38.20Q188.20 39.69 187.19 40.89Q186.17 42.10 184.71 42.82Q183.25 43.55 181.38 43.55ZM183.76 39.49L183.76 39.49Q184.50 39.49 185.26 39.22Q186.02 38.94 186.74 38.46Q187.46 37.97 188.07 37.23Q188.67 36.49 189.06 35.55L189.06 35.55L188.98 32.98Q188.63 33.13 188.24 33.25L188.24 33.25Q187.31 33.56 186.31 33.72Q185.32 33.87 184.34 34.07Q183.37 34.26 182.61 34.58Q181.84 34.89 181.40 35.41Q180.95 35.94 180.95 36.88L180.95 36.88Q180.95 38.09 181.73 38.79Q182.51 39.49 183.76 39.49Z"></path>
</svg>