<svg xmlns="http://www.w3.org/2000/svg" viewBox="-43.6 -123.4 82.4 127.9" width="82.4" height="127.9"><path d="M0,0 Q0.1,-28.7 0.2,-57.5" stroke="#4A4238" stroke-width="3.0127945436164736" fill="none" opacity="0.95" stroke-linecap="round"></path><path d="M30,-80.7 Q24.8,-70.2 12,-71.5 Q-0.7,-72.7 -9,-81.9 Q-17.3,-91.1 -8.7,-99.8 Q0,-108.5 10.8,-107.8 Q21.6,-107.1 28.4,-99.1 Q21.6,-107.1 28.4,-99.1 Q35.3,-91.1 30,-80.7 Z" fill="#205E40" opacity="0.8700587394461035" stroke-linecap="round"></path><path d="M10.2,-82.5 Q6.5,-73.2 -2.6,-68.7 Q-11.6,-64.2 -18.3,-71.2 Q-24.9,-78.3 -32.5,-85 Q-40.1,-91.8 -35.4,-101.5 Q-30.7,-111.2 -21.2,-114.9 Q-11.6,-118.5 -4.9,-112 Q1.9,-105.6 7.8,-98.7 Q1.9,-105.6 7.8,-98.7 Q13.8,-91.8 10.2,-82.5 Z" fill="#205E40" opacity="0.9214409412530948" stroke-linecap="round"></path><path d="M-1.4,-83.6 Q-5.4,-75.9 -13.3,-73.4 Q-21.2,-70.9 -29,-75.9 Q-36.7,-81 -37.3,-91.7 Q-37.9,-102.3 -30.4,-111.1 Q-22.9,-119.9 -13.9,-113.8 Q-4.8,-107.7 -1.1,-99.5 Q-4.8,-107.7 -1.1,-99.5 Q2.7,-91.4 -1.4,-83.6 Z" fill="#205E40" opacity="0.8966582406894303" stroke-linecap="round"></path><path d="M3.7,-85.2 Q-1,-79.7 -9.3,-79.6 Q-17.6,-79.4 -21.5,-85 Q-25.3,-90.7 -20.5,-95 Q-15.6,-99.3 -9.1,-99.4 Q-2.5,-99.6 2.9,-95.1 Q-2.5,-99.6 2.9,-95.1 Q8.3,-90.7 3.7,-85.2 Z" fill="#2F7A52" opacity="0.76" stroke-linecap="round"></path></svg>