<svg xmlns="http://www.w3.org/2000/svg" viewBox="-56.1 -132.3 109.0 137.3" width="109.0" height="137.3"><path d="M0,0 Q-0.1,-35 -0.2,-70" stroke="#4A4238" stroke-width="4.030622249818407" fill="none" opacity="0.95" stroke-linecap="round"></path><path d="M0,-50.9 Q-12.4,-60.8 -24.8,-65.8" stroke="#4A4238" stroke-width="1.6" fill="none" opacity="0.76" stroke-linecap="round"></path><path d="M0,-61.1 Q10.7,-69.6 21.4,-73.9" stroke="#4A4238" stroke-width="1.6" fill="none" opacity="0.76" stroke-linecap="round"></path><path d="M39.3,-98.4 Q29.3,-91.1 11.9,-85.9 Q-5.5,-80.7 -15.5,-89.5 Q-25.6,-98.2 -33.9,-107.8 Q-42.2,-117.4 -23.4,-123.1 Q-4.6,-128.8 15.4,-126.5 Q35.4,-124.3 42.4,-115 Q35.4,-124.3 42.4,-115 Q49.4,-105.8 39.3,-98.4 Z" fill="#205E40" opacity="0.9115778116625733" stroke-linecap="round"></path><path d="M26.8,-93.1 Q23.3,-83.9 9.8,-79.4 Q-3.7,-74.9 -19.1,-78.1 Q-34.5,-81.3 -41,-91.8 Q-47.5,-102.3 -39.8,-111.9 Q-32.1,-121.6 -17.9,-125.2 Q-3.7,-128.7 9.3,-124.3 Q22.3,-119.9 26.3,-111.1 Q22.3,-119.9 26.3,-111.1 Q30.3,-102.3 26.8,-93.1 Z" fill="#205E40" opacity="0.810798915878986" stroke-linecap="round"></path><path d="M13.1,-71.5 Q2.5,-63.5 -11.6,-59.2 Q-25.8,-54.9 -39.2,-61.7 Q-52.6,-68.4 -47.2,-77.9 Q-41.9,-87.3 -32.6,-92.2 Q-23.3,-97.2 -9.6,-97.1 Q4.1,-96.9 13.9,-88.2 Q4.1,-96.9 13.9,-88.2 Q23.8,-79.6 13.1,-71.5 Z" fill="#205E40" opacity="0.9146895383484661" stroke-linecap="round"></path><path d="M30.4,-89.8 Q28.5,-81.2 11.7,-79.4 Q-5.1,-77.6 -18.5,-83.3 Q-31.9,-89 -31.1,-98.2 Q-30.4,-107.3 -18.1,-114.2 Q-5.9,-121 11,-118.1 Q27.9,-115.1 30.1,-106.7 Q27.9,-115.1 30.1,-106.7 Q32.3,-98.4 30.4,-89.8 Z" fill="#205E40" opacity="0.8719071698590415" stroke-linecap="round"></path><path d="M3.9,-97.6 Q-4,-92.9 -15.9,-91.9 Q-27.8,-90.9 -36,-96.6 Q-44.2,-102.3 -35.1,-107.2 Q-26,-112.1 -15,-111.9 Q-3.9,-111.7 3.9,-107 Q-3.9,-111.7 3.9,-107 Q11.8,-102.3 3.9,-97.6 Z" fill="#2F7A52" opacity="0.76" stroke-linecap="round"></path></svg>