<svg xmlns="http://www.w3.org/2000/svg" viewBox="-25.1 -137.9 60.0 142.4" width="60.0" height="142.4"><path d="M0,0 Q-0.9,-33.3 -2.2,-66.7" stroke="#4A4238" stroke-width="2.961593517102301" fill="none" opacity="0.95" stroke-linecap="round"></path><path d="M27.5,-96 Q23.5,-86.6 16,-83.2 Q8.5,-79.8 1.4,-83.6 Q-5.8,-87.4 -9.5,-96.5 Q-13.3,-105.5 -9,-113.8 Q-4.7,-122.1 1.9,-126.9 Q8.5,-131.6 16.5,-128.7 Q24.5,-125.7 28,-115.6 Q24.5,-125.7 28,-115.6 Q31.4,-105.5 27.5,-96 Z" fill="#205E40" opacity="0.8636873083357932" stroke-linecap="round"></path><path d="M16.8,-71.5 Q16,-60.1 8.4,-55.4 Q0.8,-50.6 -7.2,-54.8 Q-15.2,-58.9 -17.3,-70.9 Q-19.4,-82.9 -17.3,-95 Q-15.3,-107.1 -7.2,-110.6 Q0.8,-114.1 8.6,-110.2 Q16.4,-106.3 17,-94.6 Q16.4,-106.3 17,-94.6 Q17.7,-82.9 16.8,-71.5 Z" fill="#205E40" opacity="0.8902772676135646" stroke-linecap="round"></path><path d="M8,-96.2 Q3.3,-85.7 -5.6,-81.5 Q-14.5,-77.3 -16.6,-92 Q-18.7,-106.7 -16,-119.7 Q-13.3,-132.6 -3.8,-133.5 Q5.7,-134.4 9.2,-120.5 Q5.7,-134.4 9.2,-120.5 Q12.7,-106.7 8,-96.2 Z" fill="#205E40" opacity="0.831536934688338" stroke-linecap="round"></path><path d="M2.5,-96.7 Q-1,-90.4 -8,-90 Q-15,-89.6 -18.3,-96.3 Q-21.6,-103 -18.5,-110.1 Q-15.4,-117.2 -8,-116.9 Q-0.5,-116.7 2.8,-109.8 Q-0.5,-116.7 2.8,-109.8 Q6.1,-103 2.5,-96.7 Z" fill="#2F7A52" opacity="0.76" stroke-linecap="round"></path><circle cx="-12" cy="-91.2" r="1.4" fill="#A97C14" opacity="0.8075"></circle><circle cx="2.3" cy="-78.6" r="1.4" fill="#A97C14" opacity="0.8075"></circle><circle cx="5.1" cy="-81.4" r="1.4" fill="#A97C14" opacity="0.8075"></circle></svg>