<svg xmlns="http://www.w3.org/2000/svg" viewBox="-28.1 -132.8 64.1 136.8" width="64.1" height="136.8"><path d="M0,0 Q-1.4,-43.8 -3.5,-87.6" stroke="#B3AC9C" stroke-width="2.069164863647893" fill="none" opacity="1" stroke-linecap="round"></path><path d="M-1.5,-68.1 l3,0" stroke="#4A4238" stroke-width="1" fill="none" opacity="0.475" stroke-linecap="round"></path><path d="M-1.5,-49.6 l3,0" stroke="#4A4238" stroke-width="1" fill="none" opacity="0.475" stroke-linecap="round"></path><path d="M-1.5,-54.6 l3,0" stroke="#4A4238" stroke-width="1" fill="none" opacity="0.475" stroke-linecap="round"></path><path d="M27.5,-104.8 Q22.4,-97.7 10.8,-98.6 Q-0.8,-99.4 -4,-105.6 Q-7.2,-111.9 -4.9,-119.2 Q-2.6,-126.4 9.1,-125.3 Q20.7,-124.1 26.6,-118 Q20.7,-124.1 26.6,-118 Q32.5,-111.9 27.5,-104.8 Z" fill="#205E40" opacity="0.8564175129932118" stroke-linecap="round"></path><path d="M22.7,-91.3 Q20.9,-86.4 12.9,-86.6 Q5,-86.7 -1.1,-89.1 Q-7.2,-91.4 -7.6,-96.2 Q-8,-101 -1.8,-104.1 Q4.3,-107.2 12.8,-106.7 Q21.3,-106.1 22.9,-101.1 Q21.3,-106.1 22.9,-101.1 Q24.4,-96.1 22.7,-91.3 Z" fill="#205E40" opacity="0.8096457950747571" stroke-linecap="round"></path><path d="M16.5,-105.6 Q12.5,-99.3 3.9,-96.6 Q-4.7,-93.8 -12.5,-97.1 Q-20.4,-100.4 -22.5,-106.2 Q-24.6,-111.9 -21.1,-116.7 Q-17.6,-121.4 -11.2,-125.3 Q-4.7,-129.3 1.9,-125.4 Q8.5,-121.6 14.5,-116.8 Q8.5,-121.6 14.5,-116.8 Q20.5,-111.9 16.5,-105.6 Z" fill="#205E40" opacity="0.8898449905554298" stroke-linecap="round"></path><path d="M2.6,-106.8 Q-1.2,-103.5 -6.9,-103.5 Q-12.6,-103.4 -16.6,-106.7 Q-20.6,-110.1 -16.9,-113.7 Q-13.2,-117.4 -6.8,-117.5 Q-0.5,-117.5 3,-113.8 Q-0.5,-117.5 3,-113.8 Q6.4,-110.1 2.6,-106.8 Z" fill="#2F7A52" opacity="0.76" stroke-linecap="round"></path></svg>