<svg xmlns="http://www.w3.org/2000/svg" viewBox="-45.5 -162.9 91.4 167.6" width="91.4" height="167.6"><path d="M0,0 Q-0.7,-72.4 -1.7,-144.7" stroke="#4A4238" stroke-width="3.328103883424774" fill="none" opacity="0.95" stroke-linecap="round"></path><path d="M35.5,-124.9 Q28.6,-119.6 9,-121.6 Q-10.5,-123.5 -26.3,-126.9 Q-42,-130.2 -31.7,-136 Q-21.3,-141.8 0.7,-140 Q22.7,-138.3 32.6,-134.3 Q22.7,-138.3 32.6,-134.3 Q42.4,-130.2 35.5,-124.9 Z" fill="#205E40" opacity="0.95" stroke-linecap="round"></path><path d="M19.9,-145.7 Q9.4,-141.2 -1.9,-142 Q-13.2,-142.8 -21.6,-146.4 Q-30.1,-150.1 -22.7,-154.6 Q-15.2,-159 -2.7,-159.2 Q9.9,-159.4 20.2,-154.8 Q9.9,-159.4 20.2,-154.8 Q30.5,-150.1 19.9,-145.7 Z" fill="#2F7A52" opacity="0.95" stroke-linecap="round"></path></svg>