<svg xmlns="http://www.w3.org/2000/svg" viewBox="-22.3 -22.6 39.8 26.3" width="39.8" height="26.3"><path d="M0,0 Q-4.7,-19 -18.6,-14.6" stroke="#5E7A62" stroke-width="1.3" fill="none" opacity="0.7" stroke-linecap="round"></path><path d="M-2.9,-8 l-3.5,-0.8" stroke="#5E7A62" stroke-width="1" fill="none" opacity="0.55" stroke-linecap="round"></path><path d="M-7,-13.1 l-3.5,-1.1" stroke="#5E7A62" stroke-width="1" fill="none" opacity="0.55" stroke-linecap="round"></path><path d="M-12.2,-15.3 l-3.5,-1.8" stroke="#5E7A62" stroke-width="1" fill="none" opacity="0.55" stroke-linecap="round"></path><path d="M0,0 Q3.6,-14.5 13.9,-9.8" stroke="#5E7A62" stroke-width="1.3" fill="none" opacity="0.7" stroke-linecap="round"></path><path d="M2.2,-6 l3.5,-0.7" stroke="#5E7A62" stroke-width="1" fill="none" opacity="0.55" stroke-linecap="round"></path><path d="M5.3,-9.7 l3.5,-0.6" stroke="#5E7A62" stroke-width="1" fill="none" opacity="0.55" stroke-linecap="round"></path><path d="M9.2,-10.9 l3.5,-1" stroke="#5E7A62" stroke-width="1" fill="none" opacity="0.55" stroke-linecap="round"></path><path d="M0,0 Q-3.9,-15.5 -12.3,-13.4" stroke="#5E7A62" stroke-width="1.3" fill="none" opacity="0.7" stroke-linecap="round"></path><path d="M-2.2,-6.6 l-3.5,-1.8" stroke="#5E7A62" stroke-width="1" fill="none" opacity="0.55" stroke-linecap="round"></path><path d="M-5,-11.1 l-3.5,-1.4" stroke="#5E7A62" stroke-width="1" fill="none" opacity="0.55" stroke-linecap="round"></path><path d="M-8.4,-13.3 l-3.5,-1.7" stroke="#5E7A62" stroke-width="1" fill="none" opacity="0.55" stroke-linecap="round"></path><path d="M0,0 Q3.7,-14.9 12.4,-11.6" stroke="#5E7A62" stroke-width="1.3" fill="none" opacity="0.7" stroke-linecap="round"></path><path d="M2.2,-6.3 l3.5,-1.3" stroke="#5E7A62" stroke-width="1" fill="none" opacity="0.55" stroke-linecap="round"></path><path d="M5,-10.3 l3.5,-1.2" stroke="#5E7A62" stroke-width="1" fill="none" opacity="0.55" stroke-linecap="round"></path><path d="M8.4,-12.1 l3.5,-1.7" stroke="#5E7A62" stroke-width="1" fill="none" opacity="0.55" stroke-linecap="round"></path></svg>