<svg xmlns="http://www.w3.org/2000/svg" viewBox="-35.2 -55.5 66.7 60.5" width="66.7" height="60.5"><path d="M-13,-16 L-14,0" stroke="#D2B48F" stroke-width="4" fill="none" opacity="0.95" stroke-linecap="round"></path><path d="M-5,-15 L-5,0" stroke="#D2B48F" stroke-width="4" fill="none" opacity="0.85" stroke-linecap="round"></path><path d="M6,-15 L6,0" stroke="#D2B48F" stroke-width="4" fill="none" opacity="0.85" stroke-linecap="round"></path><path d="M13,-16 L15,0" stroke="#D2B48F" stroke-width="4" fill="none" opacity="0.95" stroke-linecap="round"></path><path d="M15.5,-19.9 Q12.9,-15.9 6.4,-13.4 Q0,-10.9 -6.1,-13.6 Q-12.2,-16.3 -15.8,-20.1 Q-19.5,-24 -16.9,-28.5 Q-14.3,-33.1 -7.2,-34.6 Q0,-36.1 6.7,-34.3 Q13.4,-32.5 15.8,-28.2 Q13.4,-32.5 15.8,-28.2 Q18.2,-24 15.5,-19.9 Z" stroke="#C4A277" stroke-width="1" fill="#EAE1CD" opacity="1" stroke-linecap="round"></path><path d="M17.7,-18.4 Q14.9,-14.8 10.1,-13.6 Q5.4,-12.4 2,-15.3 Q-1.5,-18.2 -2.9,-22.6 Q-4.3,-26.9 0.5,-29.4 Q5.3,-31.9 10.5,-31 Q15.8,-30.1 18.1,-26.1 Q15.8,-30.1 18.1,-26.1 Q20.5,-22 17.7,-18.4 Z" fill="#D2B48F" opacity="0.35" stroke-linecap="round"></path><path d="M-9.6,-34.6 Q-10.8,-31.2 -14.4,-29.9 Q-18,-28.7 -21.7,-29.8 Q-25.5,-30.9 -26.9,-34.5 Q-28.4,-38 -26.6,-41.3 Q-24.9,-44.5 -21.4,-45.8 Q-18,-47.1 -14.6,-45.8 Q-11.2,-44.5 -9.8,-41.2 Q-11.2,-44.5 -9.8,-41.2 Q-8.4,-38 -9.6,-34.6 Z" stroke="#C4A277" stroke-width="1" fill="#EAE1CD" opacity="1" stroke-linecap="round"></path><path d="M-12.3,-44.4 Q-13.4,-42.8 -16,-42.8 Q-18.6,-42.9 -19.9,-44.4 Q-21.2,-46 -20,-47.6 Q-18.7,-49.3 -16,-49.2 Q-13.4,-49.2 -12.3,-47.6 Q-13.4,-49.2 -12.3,-47.6 Q-11.2,-46 -12.3,-44.4 Z" stroke="#C4A277" stroke-width="0.8" fill="#EAE1CD" opacity="0.95" stroke-linecap="round"></path><ellipse cx="-11" cy="-35" rx="4.5" ry="8" fill="#D2B48F" opacity="0.8"></ellipse><ellipse cx="-26.5" cy="-35.5" rx="5" ry="4" fill="#D2B48F" opacity="0.7"></ellipse><circle cx="-30.5" cy="-36" r="1.7" fill="#1A1B1D" opacity="0.85"></circle><circle cx="-21.5" cy="-40.5" r="1.3" fill="#1A1B1D" opacity="0.8"></circle><path d="M-13,-31.5 Q-9,-29 -6,-30.5" stroke="#BF4B2A" stroke-width="1.8" fill="none" opacity="0.9" stroke-linecap="round"></path><path d="M17,-30 Q26,-42 22,-50" stroke="#EAE1CD" stroke-width="5" fill="none" opacity="1" stroke-linecap="round"></path><path d="M18,-32 Q25,-42 22,-48" stroke="#D2B48F" stroke-width="2" fill="none" opacity="0.5" stroke-linecap="round"></path></svg>