<svg xmlns="http://www.w3.org/2000/svg" viewBox="-24.0 -52.0 48.0 52.0" width="48.0" height="52.0"><path d="M-2,0 Q-4.5,-20 -2.5,-42 Q-1,-50 0.5,-51 Q2.5,-42 2.8,-24 Q3,-10 2,0 Z" fill="#5B8A76" opacity="0.92" stroke-linecap="round"></path><path d="M-4,0 Q-13,-6 -18.5,-16 Q-22.5,-24 -23,-33 Q-16,-27 -11,-19 Q-6.5,-11 -4.5,-2 Z" fill="#6E9E8A" opacity="0.85" stroke-linecap="round"></path><path d="M4,0 Q13,-6 18.5,-16 Q22.5,-24 23,-33 Q16,-27 11,-19 Q6.5,-11 4.5,-2 Z" fill="#6E9E8A" opacity="0.85" stroke-linecap="round"></path><path d="M-3.5,0 Q-9.5,-11 -12.5,-23 Q-14.5,-32 -13.5,-40 Q-8.5,-31 -6,-21 Q-4,-12 -3,-3 Z" fill="#2F7A52" opacity="0.78" stroke-linecap="round"></path><path d="M3.5,0 Q9.5,-11 12.5,-23 Q14.5,-32 13.5,-40 Q8.5,-31 6,-21 Q4,-12 3,-3 Z" fill="#2F7A52" opacity="0.78" stroke-linecap="round"></path><path d="M-3,0 Q-16,-3 -21.5,-10 Q-14,-10.5 -8,-7 Q-4,-4.5 -2.5,-1 Z" fill="#5B8A76" opacity="0.8" stroke-linecap="round"></path><path d="M3,0 Q16,-3 21.5,-10 Q14,-10.5 8,-7 Q4,-4.5 2.5,-1 Z" fill="#5B8A76" opacity="0.8" stroke-linecap="round"></path><circle cx="0.5" cy="-50" r="1.3" fill="#C2AF87" opacity="0.9"></circle><circle cx="-13.5" cy="-40" r="1.1" fill="#C2AF87" opacity="0.8"></circle><circle cx="13.5" cy="-40" r="1.1" fill="#C2AF87" opacity="0.8"></circle></svg>