<svg xmlns="http://www.w3.org/2000/svg" viewBox="-17.0 -64.0 34.0 64.0" width="34.0" height="64.0"><path d="M-6,0 Q-7.5,-20 -6.5,-40" stroke="#C2AF87" stroke-width="2.2" fill="none" opacity="0.9" stroke-linecap="round"></path><path d="M7,0 Q8,-16 7,-34" stroke="#C2AF87" stroke-width="2" fill="none" opacity="0.85" stroke-linecap="round"></path><g opacity="0.95"><ellipse cx="-8.5" cy="-43" rx="3.4" ry="5" transform="rotate(14 -8.5 -43)" fill="#D9B95C" opacity="0.9"></ellipse><ellipse cx="-4.5" cy="-45.5" rx="3.4" ry="5" transform="rotate(-12 -4.5 -45.5)" fill="#C9A83E" opacity="0.88"></ellipse><ellipse cx="-8.5" cy="-50" rx="3.2" ry="4.8" transform="rotate(16 -8.5 -50)" fill="#C9A83E" opacity="0.85"></ellipse><ellipse cx="-4.5" cy="-52.5" rx="3.2" ry="4.8" transform="rotate(-14 -4.5 -52.5)" fill="#D9B95C" opacity="0.9"></ellipse><ellipse cx="-6.5" cy="-57" rx="3" ry="4.4" fill="#D9B95C" opacity="0.92"></ellipse></g><path d="M-8,-46 Q-11,-54 -10,-62 M-5,-49 Q-6,-57 -3.5,-63.5 M-7,-55 Q-8.5,-60 -7,-64" stroke="#C2AF87" stroke-width="1.1" fill="none" opacity="0.75" stroke-linecap="round"></path><g opacity="0.95"><ellipse cx="4.8" cy="-37" rx="3.1" ry="4.6" transform="rotate(15 4.8 -37)" fill="#C9A83E" opacity="0.85"></ellipse><ellipse cx="8.8" cy="-39.5" rx="3.1" ry="4.6" transform="rotate(-13 8.8 -39.5)" fill="#D9B95C" opacity="0.9"></ellipse><ellipse cx="5" cy="-43.5" rx="3" ry="4.4" transform="rotate(14 5 -43.5)" fill="#D9B95C" opacity="0.88"></ellipse><ellipse cx="8.5" cy="-46" rx="3" ry="4.4" transform="rotate(-15 8.5 -46)" fill="#C9A83E" opacity="0.86"></ellipse><ellipse cx="6.8" cy="-50" rx="2.8" ry="4.2" fill="#D9B95C" opacity="0.9"></ellipse></g><path d="M5.5,-40 Q3.5,-48 5,-55 M9.5,-43 Q9,-51 11.5,-57 M7.5,-48 Q7,-53 8.5,-58" stroke="#C2AF87" stroke-width="1.1" fill="none" opacity="0.75" stroke-linecap="round"></path></svg>