<svg xmlns="http://www.w3.org/2000/svg" viewBox="-19.0 -50.0 38.0 50.0" width="38.0" height="50.0"><path d="M-14,-2 Q-18.5,-13 -18,-25 Q-17.5,-37 -14,-48 L14,-48 Q17.5,-37 18,-25 Q18.5,-13 14,-2 Q7,0 0,0 Q-7,0 -14,-2 Z" fill="#8A6B4A" opacity="0.92" stroke-linecap="round"></path><path d="M-9,-3.5 Q-12,-14 -11.8,-25 Q-11.6,-37 -9.2,-47 Q-7.6,-47.5 -6.8,-47 Q-9,-37 -9.2,-25 Q-9.4,-13 -6.8,-3 Z" fill="#4A4238" opacity="0.3" stroke-linecap="round"></path><path d="M8,-3.5 Q11,-14 10.8,-25 Q10.6,-37 8.2,-47 Q6.6,-47.5 5.8,-47 Q8,-37 8.2,-25 Q8.4,-13 5.8,-3 Z" fill="#4A4238" opacity="0.3" stroke-linecap="round"></path><path d="M-16.8,-11.5 Q0,-8 16.8,-11.5" stroke="#4A4238" stroke-width="3.2" fill="none" opacity="0.85" stroke-linecap="round"></path><path d="M-17.6,-38 Q0,-41.5 17.6,-38" stroke="#4A4238" stroke-width="3.2" fill="none" opacity="0.85" stroke-linecap="round"></path><path d="M-15,-25.5 Q0,-23.5 15,-25.5" stroke="#F2F1EA" opacity="0.18" stroke-width="2" fill="none" stroke-linecap="round"></path><circle cx="-3.5" cy="-31.5" r="1.3" fill="#4A4238" opacity="0.4"></circle><circle cx="4" cy="-18" r="1.3" fill="#4A4238" opacity="0.4"></circle></svg>