<svg xmlns="http://www.w3.org/2000/svg" viewBox="-15.0 -58.0 30.0 58.0" width="30.0" height="58.0"><path d="M-11.5,-44 Q-12,-22 -10,-1.5 Q-9.8,0 -8,0 L8,0 Q9.8,0 10,-1.5 Q12,-22 11.5,-44 Z" fill="#C9922E" opacity="0.88" stroke-linecap="round"></path><path d="M-8,-42 Q-8.5,-22 -7,-4 Q-6,-3.5 -5,-4 Q-6.5,-22 -5.5,-42 Z" fill="#F2F1EA" opacity="0.3" stroke-linecap="round"></path><path d="M6,-30 Q6.5,-18 6,-6 Q7.5,-6.5 8,-8 Q8.8,-19 8.5,-30 Z" fill="#8A5230" opacity="0.35" stroke-linecap="round"></path><path d="M-13,-45 Q-7,-49.5 0,-49 Q7,-49.5 13,-45.5 Q14.5,-50 10.5,-53 Q13,-56.5 7.5,-57.5 Q3,-58.5 0,-56.5 Q-4,-58.5 -8.5,-56.5 Q-13,-54.5 -10.5,-51.5 Q-14.5,-49.5 -13,-45 Z" fill="#F2F1EA" opacity="0.96" stroke-linecap="round"></path><path d="M9,-44 Q10,-40 9.5,-36.5 Q11,-38 11.2,-42 Z" fill="#F2F1EA" opacity="0.85" stroke-linecap="round"></path><circle cx="-3" cy="-36" r="1.1" fill="#F2F1EA" opacity="0.5"></circle><circle cx="2.5" cy="-26" r="1" fill="#F2F1EA" opacity="0.45"></circle><circle cx="-1.5" cy="-16" r="0.9" fill="#F2F1EA" opacity="0.4"></circle></svg>