<svg xmlns="http://www.w3.org/2000/svg" viewBox="-9.5 -50.0 19.0 50.0" width="19.0" height="50.0"><path d="M-8,-2.5 Q-8.8,-24 -8,-45 Q-4,-47 0,-47 Q4,-47 8,-45 Q8.8,-24 8,-2.5 Q4,-0.5 0,-0.5 Q-4,-0.5 -8,-2.5 Z" fill="#C9922E" opacity="0.9" stroke-linecap="round"></path><ellipse cx="0" cy="-45.6" rx="7.6" ry="2.4" fill="#B3AC9C" opacity="0.95"></ellipse><ellipse cx="0" cy="-45.8" rx="5.2" ry="1.5" fill="#8A8578" opacity="0.6"></ellipse><circle cx="1.8" cy="-45.8" r="1.2" fill="#F2F1EA" opacity="0.9"></circle><path d="M-7.8,-32 Q0,-33.5 7.8,-32 L7.5,-16 Q0,-17.5 -7.5,-16 Z" fill="#F2F1EA" opacity="0.92" stroke-linecap="round"></path><path d="M0,-28.5 Q2.2,-25 2.2,-23.2 A 2.3 2.3 0 1 1 -2.2,-23.2 Q-2.2,-25 0,-28.5 Z" fill="#B77445" opacity="0.85"></path><path d="M-5.8,-6 Q-6.4,-24 -5.8,-42 Q-4.8,-43 -4.2,-42.5 Q-4.8,-24 -4.2,-7 Z" fill="#F2F1EA" opacity="0.3" stroke-linecap="round"></path></svg>