<svg xmlns="http://www.w3.org/2000/svg" viewBox="-12.0 -84.0 24.0 84.0" width="24.0" height="84.0"><path d="M-11,0 Q-11.5,-30 -10.5,-46 Q-10,-54 -5.5,-59 Q-3.2,-61.5 -3.2,-66 L-3.2,-76 L3.2,-76 L3.2,-66 Q3.2,-61.5 5.5,-59 Q10,-54 10.5,-46 Q11.5,-30 11,0 Z" fill="#35543F" opacity="0.94" stroke-linecap="round"></path><path d="M-8,-6 Q-8.8,-30 -8,-45 Q-7.6,-52 -4,-56 Q-5.4,-46 -5.4,-34 Q-5.4,-18 -4.6,-6 Z" fill="#F2F1EA" opacity="0.2" stroke-linecap="round"></path><path d="M-3.6,-66 L3.6,-66 Q4.4,-72 3.4,-77 L-3.4,-77 Q-4.4,-72 -3.6,-66 Z" fill="#C2AF87" opacity="0.95" stroke-linecap="round"></path><path d="M-3.4,-77 L3.4,-77 L3.4,-82 Q0,-83.5 -3.4,-82 Z" fill="#4A4238" opacity="0.85" stroke-linecap="round"></path><path d="M-3.4,-70 L3.4,-70" stroke="#4A4238" stroke-width="0.8" opacity="0.4"></path><path d="M-10.4,-40 Q0,-41.5 10.4,-40 L10,-20 Q0,-21.5 -10,-20 Z" fill="#F2F1EA" opacity="0.92" stroke-linecap="round"></path><path d="M0,-35.5 Q1.9,-32.5 1.9,-31 A 2 2 0 1 1 -1.9,-31 Q-1.9,-32.5 0,-35.5 Z" fill="#C2AF87" opacity="0.9"></path><path d="M-6.5,-26 Q0,-27 6.5,-26" stroke="#B3AC9C" stroke-width="1.2" fill="none" opacity="0.75" stroke-linecap="round"></path></svg>