<svg xmlns="http://www.w3.org/2000/svg" viewBox="-25.0 -52.0 50.0 52.0" width="50.0" height="52.0"><g transform="rotate(-8 -11 0)"><path d="M-18.5,-3 Q-19.5,-20 -18.8,-38 Q-14.5,-40 -10.5,-40 Q-6.5,-40 -3.5,-38.5 Q-2.8,-20 -3.8,-3 Q-7.5,-1 -11,-1 Q-15,-1 -18.5,-3 Z" fill="#C9922E" opacity="0.9" stroke-linecap="round"></path><path d="M-16.2,-6 Q-17,-21 -16.4,-36 Q-15.2,-37 -14.6,-36.5 Q-15.2,-21 -14.6,-7 Z" fill="#F2F1EA" opacity="0.3" stroke-linecap="round"></path><path d="M-19.5,-38.5 Q-15,-42.5 -10.5,-42 Q-6,-42.5 -2.8,-39 Q-1.5,-43 -5.5,-45 Q-3.5,-48 -8.5,-48.5 Q-12,-49 -13.5,-47 Q-17.5,-48 -19,-45 Q-20.5,-42 -19.5,-38.5 Z" fill="#F2F1EA" opacity="0.96" stroke-linecap="round"></path><path d="M-19,-10 Q-23.5,-11 -23.8,-18 Q-24,-25 -19.3,-27" stroke="#8A5230" stroke-width="2.6" fill="none" opacity="0.85" stroke-linecap="round"></path></g><g transform="rotate(8 11 0)"><path d="M3.8,-3 Q2.8,-20 3.5,-38.5 Q6.5,-40 10.5,-40 Q14.5,-40 18.8,-38 Q19.5,-20 18.5,-3 Q15,-1 11,-1 Q7.5,-1 3.8,-3 Z" fill="#B77445" opacity="0.88" stroke-linecap="round"></path><path d="M5.8,-6 Q5.2,-21 5.8,-36 Q7,-37 7.6,-36.5 Q7,-21 7.6,-7 Z" fill="#F2F1EA" opacity="0.28" stroke-linecap="round"></path><path d="M2.8,-39 Q6,-42.5 10.5,-42 Q15,-42.5 19.5,-38.5 Q20.5,-42.5 17.5,-44.5 Q19.5,-47.5 14.5,-48.5 Q10.5,-49.5 9,-47 Q5,-48.5 3.5,-45.5 Q2,-42.5 2.8,-39 Z" fill="#F2F1EA" opacity="0.96" stroke-linecap="round"></path><path d="M19,-10 Q23.5,-11 23.8,-18 Q24,-25 19.3,-27" stroke="#8A5230" stroke-width="2.6" fill="none" opacity="0.85" stroke-linecap="round"></path></g><circle cx="0" cy="-46" r="1.2" fill="#D9A81E" opacity="0.85"></circle><circle cx="-3.5" cy="-50" r="0.9" fill="#D9A81E" opacity="0.7"></circle><circle cx="3.5" cy="-50.5" r="0.9" fill="#D9A81E" opacity="0.7"></circle></svg>