<svg xmlns="http://www.w3.org/2000/svg" viewBox="-7.5 -76.0 15.0 76.0" width="15.0" height="76.0"><path d="M-6,0 L-6,-40 Q-6,-48 -2.4,-53 Q-2.2,-55 -2.2,-58 L-2.2,-70 L2.2,-70 L2.2,-58 Q2.2,-55 2.4,-53 Q6,-48 6,-40 L6,0 Z" fill="#35543F" opacity="0.9" stroke-linecap="round"></path><path d="M-4,-4 L-4,-40 Q-4,-46 -1.8,-50 Q-2.8,-44 -2.8,-36 L-2.8,-4 Z" fill="#F2F1EA" opacity="0.2"></path><path d="M-2.6,-70 L2.6,-70 L2.6,-73 Q0,-74.5 -2.6,-73 Z" fill="#4A4238" opacity="0.85" stroke-linecap="round"></path><path d="M-2.8,-70.5 L2.8,-70.5 L2.4,-72 L-2.4,-72 Z" fill="#C2AF87" opacity="0.7"></path><path d="M-5.8,-34 Q0,-35.5 5.8,-34 L5.6,-14 Q0,-15.5 -5.6,-14 Z" fill="#F2F1EA" opacity="0.92" stroke-linecap="round"></path><path d="M0,-29 Q1.5,-26.5 1.5,-25.3 A 1.6 1.6 0 1 1 -1.5,-25.3 Q-1.5,-26.5 0,-29 Z" fill="#A97C14" opacity="0.85"></path><path d="M-3.6,-20 Q0,-21 3.6,-20" stroke="#B3AC9C" stroke-width="1" fill="none" opacity="0.65" stroke-linecap="round"></path></svg>