<svg xmlns="http://www.w3.org/2000/svg" viewBox="-15.0 -47.0 30.0 47.0" width="30.0" height="47.0"><path d="M-8,0 Q0,-1.5 8,0 Q4,-2.5 1.5,-3.2 L1.5,-17 Q8,-19 11.5,-25 Q14,-29.5 14.2,-34 L-14.2,-34 Q-14,-29.5 -11.5,-25 Q-8,-19 -1.5,-17 L-1.5,-3.2 Q-4,-2.5 -8,0 Z" fill="#B3AC9C" opacity="0.5" stroke-linecap="round"></path><path d="M-13,-34 Q-12.6,-30 -10.5,-26.5 Q-7.5,-21.5 -1.4,-19.8 Q-0.02,-19.5 0.02,-19.5 Q1.4,-19.8 5,-21 Q10,-23.5 12,-28.5 Q13,-31 13,-34 Z" fill="#D9A81E" opacity="0.85" stroke-linecap="round"></path><path d="M-10.5,-33 Q-10,-28 -7.5,-25 Q-9.5,-26 -11,-29.5 Q-11.7,-31.5 -11.7,-33 Z" fill="#F2F1EA" opacity="0.35" stroke-linecap="round"></path><ellipse cx="0" cy="-34.2" rx="14" ry="1.7" fill="#C9922E" opacity="0.5"></ellipse><circle cx="10" cy="-36.5" r="5" fill="#D9B95C" opacity="0.95"></circle><circle cx="10" cy="-36.5" r="2.6" fill="#C9A83E" opacity="0.8"></circle><path d="M6,-40.5 Q9,-43.5 13,-42.5 Q11,-40 8,-40.2 Z" fill="#2F7A52" opacity="0.85" stroke-linecap="round"></path></svg>