<svg xmlns="http://www.w3.org/2000/svg" viewBox="-14 -78 28 78" width="28" height="78"><rect x="-10" y="-72" width="20" height="62" rx="4" fill="#DFA32B" opacity="0.8"></rect><rect x="-10" y="-72" width="20" height="62" rx="4" fill="#4A4238" opacity="0.08"></rect><rect x="-8" y="-72" width="16" height="8" rx="3" fill="#C8892A" opacity="0.9"></rect><rect x="-6" y="-78" width="12" height="8" rx="2" fill="#4A4238" opacity="0.55"></rect><rect x="-8" y="-60" width="16" height="26" rx="2" fill="#F2F1EA" opacity="0.55"></rect><path d="M-5,-56 L5,-56" stroke="#DFA32B" stroke-width="1.2" opacity="0.7"></path><path d="M-5,-52 L5,-52" stroke="#DFA32B" stroke-width="1.2" opacity="0.7"></path><path d="M-5,-48 L5,-48" stroke="#DFA32B" stroke-width="1.2" opacity="0.7"></path><path d="M-5,-44 L3,-44" stroke="#DFA32B" stroke-width="1.2" opacity="0.7"></path><path d="M-3,-38 Q0,-32 3,-38" stroke="#C8892A" stroke-width="2" fill="none" opacity="0.75" stroke-linecap="round"></path><path d="M0,-22 Q-3,-14 -4,-8 L4,-8 Q3,-14 0,-22 Z" fill="#C8892A" opacity="0.7"></path><path d="M-3,-10 Q0,-6 3,-10" stroke="#DFA32B" stroke-width="1.5" fill="none" opacity="0.6" stroke-linecap="round"></path></svg>