<svg xmlns="http://www.w3.org/2000/svg" viewBox="-11.0 -74.0 22.0 74.0" width="22.0" height="74.0"><path d="M-9.5,0 L-9.5,-46 Q-9.5,-52 -6,-55 Q-3.4,-57 -3.4,-61 L-3.4,-67 L3.4,-67 L3.4,-61 Q3.4,-57 6,-55 Q9.5,-52 9.5,-46 L9.5,0 Z" fill="#B3AC9C" opacity="0.5" stroke-linecap="round"></path><path d="M-6.6,-4 L-6.6,-46 Q-6.6,-50 -4,-52.5 Q-5.4,-46 -5.4,-38 L-5.4,-4 Z" fill="#F2F1EA" opacity="0.45"></path><path d="M-3.8,-67 L3.8,-67 L3.8,-71 Q0,-72.5 -3.8,-71 Z" fill="#4A4238" opacity="0.8" stroke-linecap="round"></path><path d="M-3.6,-63 L3.6,-63" stroke="#C2AF87" stroke-width="1" opacity="0.7"></path><path d="M-9,-44 L9,-44 L9,-16 L-9,-16 Z" fill="#F2F1EA" opacity="0.9"></path><path d="M-9,-44 L9,-44 L9,-38 L-9,-38 Z" fill="#205E40" opacity="0.8"></path><path d="M0,-33 Q1.6,-30.5 1.6,-29.2 A 1.7 1.7 0 1 1 -1.6,-29.2 Q-1.6,-30.5 0,-33 Z" fill="#205E40" opacity="0.75"></path><path d="M-5.5,-24 Q0,-25 5.5,-24" stroke="#B3AC9C" stroke-width="1.1" fill="none" opacity="0.7" stroke-linecap="round"></path><path d="M-4.5,-20 Q0,-21 4.5,-20" stroke="#B3AC9C" stroke-width="1" fill="none" opacity="0.55" stroke-linecap="round"></path></svg>