<svg xmlns="http://www.w3.org/2000/svg" viewBox="-16.0 -62.0 34.0 62.0" width="34.0" height="62.0"><path d="M0,-46 Q1.5,-52 4,-57 Q6,-60.5 9,-61" stroke="#4A4238" stroke-width="2.2" fill="none" opacity="0.9" stroke-linecap="round"></path><path d="M4,-56 Q10,-60 15.5,-57.5 Q16.5,-51.5 12,-48.5 Q7,-45.5 3.5,-50 Q2.5,-53.5 4,-56 Z" fill="#2F7A52" opacity="0.82" stroke-linecap="round"></path><circle cx="-6.5" cy="-41" r="5.2" fill="#6D4A74" opacity="0.9"></circle><circle cx="3.5" cy="-42.5" r="5.4" fill="#5B3A64" opacity="0.85"></circle><circle cx="-10.5" cy="-32" r="5.1" fill="#5B3A64" opacity="0.82"></circle><circle cx="-0.5" cy="-33" r="5.5" fill="#6D4A74" opacity="0.92"></circle><circle cx="8.5" cy="-33.5" r="5" fill="#5B3A64" opacity="0.88"></circle><circle cx="-5.5" cy="-23.5" r="5.2" fill="#6D4A74" opacity="0.85"></circle><circle cx="4" cy="-24" r="5.3" fill="#5B3A64" opacity="0.9"></circle><circle cx="-1" cy="-14.5" r="5" fill="#6D4A74" opacity="0.94"></circle><circle cx="0.5" cy="-5.2" r="4.6" fill="#5B3A64" opacity="0.9"></circle><circle cx="-8" cy="-38.5" r="1.6" fill="#F2F1EA" opacity="0.35"></circle><circle cx="-2" cy="-30.5" r="1.6" fill="#F2F1EA" opacity="0.35"></circle><circle cx="2.5" cy="-12.5" r="1.4" fill="#F2F1EA" opacity="0.35"></circle></svg>