<svg xmlns="http://www.w3.org/2000/svg" viewBox="-18 -68 36 68" width="36" height="68"><path d="M-14,0 Q-16,-20 -15,-40 Q-14,-56 -12,-62 L12,-62 Q14,-56 15,-40 Q16,-20 14,0 Z" fill="#B3AC9C" opacity="0.35"></path><path d="M-13,-4 Q-15,-22 -14,-40 Q-13,-55 -11,-61 L11,-61 Q13,-55 14,-40 Q15,-22 13,-4 Z" fill="#DFA32B" opacity="0.72"></path><path d="M-14,-32 Q-15,-22 -14,-12 Q0,-10 14,-12 Q15,-22 14,-32 Z" fill="#DFA32B" opacity="0.4"></path><path d="M-12,-55 Q-13,-44 -12.5,-34 Q-9,-36 -6,-35 Q-9,-45 -10,-55 Z" fill="#F2F1EA" opacity="0.22"></path><circle cx="6" cy="-42" r="2.2" fill="#F2F1EA" opacity="0.4"></circle><circle cx="3" cy="-28" r="1.6" fill="#F2F1EA" opacity="0.35"></circle><circle cx="7" cy="-18" r="2" fill="#F2F1EA" opacity="0.3"></circle><path d="M12,-62 Q20,-60 22,-52 Q22,-46 18,-44" stroke="#DFA32B" stroke-width="2.5" fill="none" opacity="0.65" stroke-linecap="round"></path><circle cx="22" cy="-44" r="4" fill="#C8892A" opacity="0.85"></circle><path d="M19,-47 L25,-41 M25,-47 L19,-41" stroke="#F2F1EA" stroke-width="1.2" opacity="0.8" stroke-linecap="round"></path></svg>