<svg xmlns="http://www.w3.org/2000/svg" viewBox="-18 -70 36 70" width="36" height="70"><path d="M-12,0 Q-14,-18 -13,-35 Q-12,-50 -10,-58 L10,-58 Q12,-50 13,-35 Q14,-18 12,0 Z" fill="#87BFCC" opacity="0.72"></path><path d="M-10,-58 L10,-58 L8,-64 L-8,-64 Z" fill="#87BFCC" opacity="0.55"></path><rect x="-8" y="-64" width="16" height="4" rx="2" fill="#4A4238" opacity="0.45"></rect><path d="M-10,-20 Q-11,-10 -10,-2 Q0,-1 10,-2 Q11,-10 10,-20 Z" fill="#2F7A52" opacity="0.38"></path><path d="M-11,-45 Q-12,-34 -11.5,-24 Q-8,-26 -4,-25 Q-8,-36 -9,-45 Z" fill="#F2F1EA" opacity="0.22"></path><circle cx="5" cy="-40" r="2.5" fill="#F2F1EA" opacity="0.4"></circle><circle cx="2" cy="-28" r="1.8" fill="#F2F1EA" opacity="0.35"></circle><circle cx="6" cy="-16" r="2" fill="#F2F1EA" opacity="0.3"></circle><path d="M8,-58 Q14,-52 16,-44 Q16,-38 12,-35" stroke="#87BFCC" stroke-width="2.5" fill="none" opacity="0.6" stroke-linecap="round"></path></svg>