<svg xmlns="http://www.w3.org/2000/svg" viewBox="-11.0 -80.0 22.0 80.0" width="22.0" height="80.0"><path d="M-9.5,0 Q-10,-30 -9.5,-46 Q-9.2,-53 -5.5,-56 Q-3,-58 -3,-62 L-3,-73 L3,-73 L3,-62 Q3,-58 5.5,-56 Q9.2,-53 9.5,-46 Q10,-30 9.5,0 Z" fill="#6E3B2A" opacity="0.86" stroke-linecap="round"></path><path d="M-6.6,-5 Q-7.2,-30 -6.6,-45 Q-6.4,-51 -3.8,-53.5 Q-5,-45 -5,-34 Q-5,-18 -4.4,-5 Z" fill="#F2F1EA" opacity="0.2"></path><path d="M-3.4,-73 L3.4,-73 L3.4,-78 Q0,-79.5 -3.4,-78 Z" fill="#4A4238" opacity="0.85" stroke-linecap="round"></path><path d="M-3.2,-69 L3.2,-69" stroke="#C2AF87" stroke-width="1" opacity="0.6"></path><path d="M-9.3,-42 Q0,-43.5 9.3,-42 L9,-18 Q0,-19.5 -9,-18 Z" fill="#F2F1EA" opacity="0.93" stroke-linecap="round"></path><path d="M-9.3,-42 Q0,-43.5 9.3,-42 L9.15,-35 Q0,-36.5 -9.15,-35 Z" fill="#A9712B" opacity="0.8"></path><path d="M-6,-29 Q0,-30 6,-29" stroke="#6E3B2A" stroke-width="1.3" fill="none" opacity="0.8" stroke-linecap="round"></path><path d="M-5,-24 Q0,-25 5,-24" stroke="#B3AC9C" stroke-width="0.9" fill="none" opacity="0.6" stroke-linecap="round"></path></svg>