<svg xmlns="http://www.w3.org/2000/svg" viewBox="-14 -68 28 68" width="28" height="68"><path d="M-12,-58 L-12,-10 Q-12,0 0,0 Q12,0 12,-10 L12,-58 Q12,-68 0,-68 Q-12,-68 -12,-58 Z" fill="#BF4B2A" opacity="0.85"></path><ellipse cx="0" cy="-58" rx="12" ry="5" fill="#A03820" opacity="0.9"></ellipse><ellipse cx="0" cy="0" rx="12" ry="5" fill="#A03820" opacity="0.85"></ellipse><ellipse cx="0" cy="-63" rx="9" ry="3" fill="#C8892A" opacity="0.7"></ellipse><rect x="-4" y="-68" width="8" height="4" rx="2" fill="#4A4238" opacity="0.5"></rect><path d="M-9,-50 Q-9.5,-36 -9,-20 Q-6,-22 -3,-21 Q-7,-36 -8,-50 Z" fill="#F2F1EA" opacity="0.18"></path><rect x="-8" y="-48" width="16" height="24" rx="1.5" fill="#F2F1EA" opacity="0.5"></rect><path d="M-6,-44 L6,-44" stroke="#BF4B2A" stroke-width="1" opacity="0.5"></path><path d="M-6,-40 L6,-40" stroke="#BF4B2A" stroke-width="1" opacity="0.5"></path><path d="M-6,-36 L6,-36" stroke="#BF4B2A" stroke-width="1" opacity="0.5"></path><path d="M-6,-32 L4,-32" stroke="#BF4B2A" stroke-width="1" opacity="0.5"></path><circle cx="3" cy="-14" r="2.5" fill="#F2F1EA" opacity="0.35"></circle><circle cx="-4" cy="-10" r="1.8" fill="#F2F1EA" opacity="0.3"></circle></svg>