<svg xmlns="http://www.w3.org/2000/svg" viewBox="-14 -80 28 80" width="28" height="80"><path d="M-4,-80 L4,-80 L4,-68 Q4,-64 7,-60 L9,-55 L9,-8 Q9,-2 0,-2 Q-9,-2 -9,-8 L-9,-55 L-7,-60 Q-4,-64 -4,-68 Z" fill="#B3AC9C" opacity="0.75"></path><path d="M-4,-80 L4,-80 L4,-72 L-4,-72 Z" fill="#4A4238" opacity="0.7"></path><path d="M-9,-30 Q-9.5,-20 -9,-10 Q-5,-8 0,-8 Q5,-8 9,-10 Q9.5,-20 9,-30 Z" fill="#8DA89A" opacity="0.45"></path><path d="M-7,-58 Q-8,-46 -8,-34 Q-5,-35 0,-35 Q-4,-46 -5.5,-58 Z" fill="#F2F1EA" opacity="0.18"></path><path d="M-9,-40 L9,-40" stroke="#4A4238" stroke-width="0.8" opacity="0.25"></path><path d="M-9,-20 L9,-20" stroke="#4A4238" stroke-width="0.8" opacity="0.25"></path><rect x="-6" y="-52" width="12" height="18" rx="1" fill="#F2F1EA" opacity="0.55"></rect><path d="M-4,-50 L4,-50" stroke="#B3AC9C" stroke-width="0.9" opacity="0.6"></path><path d="M-4,-47 L4,-47" stroke="#B3AC9C" stroke-width="0.9" opacity="0.6"></path><path d="M-4,-44 L4,-44" stroke="#B3AC9C" stroke-width="0.9" opacity="0.6"></path><rect x="-2" y="-80" width="4" height="3" rx="1" fill="#4A4238" opacity="0.5"></rect></svg>