<svg xmlns="http://www.w3.org/2000/svg" viewBox="-8.5 -84.0 17.0 84.0" width="17.0" height="84.0"><path d="M-7,0 L-7,-48 Q-7,-54 -4,-57 Q-2.4,-58.5 -2.4,-62 L-2.4,-78 L2.4,-78 L2.4,-62 Q2.4,-58.5 4,-57 Q7,-54 7,-48 L7,0 Z" fill="#8DA89A" opacity="0.5" stroke-linecap="round"></path><path d="M-4.8,-4 L-4.8,-48 Q-4.8,-52 -2.6,-54.5 Q-3.8,-48 -3.8,-40 L-3.8,-4 Z" fill="#F2F1EA" opacity="0.42"></path><path d="M-2.8,-78 L2.8,-78 L2.8,-82 Q0,-83.5 -2.8,-82 Z" fill="#C2AF87" opacity="0.92" stroke-linecap="round"></path><path d="M-2.6,-73 L2.6,-73" stroke="#4A4238" stroke-width="0.9" opacity="0.5"></path><path d="M-2.6,-68 L2.6,-68" stroke="#4A4238" stroke-width="0.8" opacity="0.4"></path><path d="M-6.6,-40 L6.6,-40 L6.6,-18 L-6.6,-18 Z" fill="#F2F1EA" opacity="0.9"></path><path d="M0,-36 Q1.5,-33.5 1.5,-32.3 A 1.6 1.6 0 1 1 -1.5,-32.3 Q-1.5,-33.5 0,-36 Z" fill="#8DA89A" opacity="0.85"></path><path d="M-4.4,-27 Q0,-28 4.4,-27" stroke="#8DA89A" stroke-width="1.1" fill="none" opacity="0.75" stroke-linecap="round"></path><path d="M-3.6,-23 Q0,-24 3.6,-23" stroke="#B3AC9C" stroke-width="0.9" fill="none" opacity="0.6" stroke-linecap="round"></path></svg>