<svg xmlns="http://www.w3.org/2000/svg" viewBox="-27.0 -54.0 54.0 54.0" width="54.0" height="54.0"><path d="M-7,-14 C -7,-26 -1.5,-32.5 3,-40 Q5.5,-44.5 7,-48 Q8.5,-44.5 11,-40 C 15.5,-32.5 21,-26 21,-14 A 14 14 0 0 1 -7,-14 Z" fill="#5E8FAE" opacity="0.88" stroke-linecap="round"></path><path d="M-3,-13 Q-3.5,-22 0.5,-29 Q-6,-23 -5.5,-14 Q-5,-8.5 -1.5,-6 Q-3,-9.5 -3,-13 Z" fill="#F2F1EA" opacity="0.3" stroke-linecap="round"></path><path d="M-17,-32 Q-17,-38 -14,-43.5 Q-11,-38 -11,-32 A 3.1 3.1 0 0 1 -17,-32 Z" fill="#3E6B8A" opacity="0.82" stroke-linecap="round"></path><path d="M-21.5,-4 Q-14,-7.5 -7,-6" stroke="#3E6B8A" stroke-width="2" fill="none" opacity="0.5" stroke-linecap="round"></path><path d="M-26,-1 Q-16,-4.5 -6,-2.5" stroke="#3E6B8A" stroke-width="2" fill="none" opacity="0.35" stroke-linecap="round"></path><path d="M23,-5 Q18,-7 13,-6" stroke="#3E6B8A" stroke-width="2" fill="none" opacity="0.45" stroke-linecap="round"></path><circle cx="-14" cy="-24" r="1.4" fill="#5E8FAE" opacity="0.7"></circle><circle cx="24" cy="-16" r="1.6" fill="#3E6B8A" opacity="0.6"></circle></svg>