<svg xmlns="http://www.w3.org/2000/svg" viewBox="-30.0 -74.0 66.0 74.0" width="66.0" height="74.0"><path d="M-26,0 Q-27.5,-16 -22,-27 Q-16.5,-38 -2,-38.5 Q12.5,-38 18,-27 Q23.5,-16 22,0 Z" fill="#B77445" opacity="0.92" stroke-linecap="round"></path><path d="M-20,-6 Q-21,-18 -15.5,-27 Q-10,-35.5 -2,-35.5 Q-14,-30 -16.5,-18 Q-18,-9 -17.5,-4 Z" fill="#F2F1EA" opacity="0.22" stroke-linecap="round"></path><path d="M14,-2 Q17,-14 12.5,-24 Q19,-16 19.5,-4 Z" fill="#8A5230" opacity="0.55" stroke-linecap="round"></path><path d="M-2,-38 Q-8,-45 -6.5,-51 Q-5,-57 0,-58.5" stroke="#B77445" stroke-width="7.5" fill="none" opacity="0.95" stroke-linecap="round"></path><path d="M0,-58.5 Q8,-60.5 16,-56 Q24,-51.5 27.5,-42 Q30,-35 30.5,-26" stroke="#B77445" stroke-width="5" fill="none" opacity="0.95" stroke-linecap="round"></path><path d="M30.5,-26 Q31,-16 30.5,-8 Q30.2,-3 30.5,0" stroke="#8A5230" stroke-width="4" fill="none" opacity="0.9" stroke-linecap="round"></path><path d="M-9,-38.5 Q-2,-41 5,-38.5 Q-2,-36 -9,-38.5 Z" fill="#8A5230" opacity="0.6" stroke-linecap="round"></path><circle cx="-8" cy="-14" r="1.5" fill="#4A4238" opacity="0.45"></circle><circle cx="2" cy="-14" r="1.5" fill="#4A4238" opacity="0.45"></circle></svg>