<svg xmlns="http://www.w3.org/2000/svg" viewBox="-12.5 -70.0 25.0 70.0" width="25.0" height="70.0"><path d="M-11,0 L-11,-40 Q-11,-48 -6.5,-52 Q-3.6,-54.5 -3.6,-58 L-3.6,-63 L3.6,-63 L3.6,-58 Q3.6,-54.5 6.5,-52 Q11,-48 11,-40 L11,0 Z" fill="#A9712B" opacity="0.82" stroke-linecap="round"></path><path d="M-8,-4 L-8,-40 Q-8,-46 -4.2,-49.5 Q-5.6,-42 -5.6,-32 L-5.6,-4 Z" fill="#F2F1EA" opacity="0.24"></path><path d="M-4,-63 L4,-63 L4,-68 Q0,-69.5 -4,-68 Z" fill="#4A4238" opacity="0.85" stroke-linecap="round"></path><path d="M-4,-59 L4,-59" stroke="#C2AF87" stroke-width="1" opacity="0.6"></path><path d="M-10.5,-38 Q0,-39.5 10.5,-38 L10.2,-14 Q0,-15.5 -10.2,-14 Z" fill="#F2F1EA" opacity="0.92" stroke-linecap="round"></path><path d="M-7,-31 Q0,-32 7,-31" stroke="#A9712B" stroke-width="1.4" fill="none" opacity="0.85" stroke-linecap="round"></path><path d="M-6,-25 Q0,-26 6,-25" stroke="#4A4238" stroke-width="1" fill="none" opacity="0.45" stroke-linecap="round"></path><path d="M-5,-20 Q0,-21 5,-20" stroke="#B3AC9C" stroke-width="0.9" fill="none" opacity="0.6" stroke-linecap="round"></path></svg>