<svg xmlns="http://www.w3.org/2000/svg" viewBox="-9.5 -82.0 19.0 82.0" width="19.0" height="82.0"><path d="M-8,0 Q-9,-26 -8.5,-46 Q-8.2,-52 -5,-55 Q-2.6,-57 -2.6,-61 L-2.6,-76 L2.6,-76 L2.6,-61 Q2.6,-57 5,-55 Q8.2,-52 8.5,-46 Q9,-26 8,0 Z" fill="#8DA89A" opacity="0.6" stroke-linecap="round"></path><path d="M-5.8,-6 Q-6.6,-26 -6.2,-45 Q-6,-50 -4,-52.5 Q-5.2,-45 -5.2,-38 Q-5.2,-20 -4.4,-6 Z" fill="#F2F1EA" opacity="0.4" stroke-linecap="round"></path><path d="M-3,-76 L3,-76 L3,-80 Q0,-81.5 -3,-80 Z" fill="#C2AF87" opacity="0.9" stroke-linecap="round"></path><path d="M-3,-72 L3,-72" stroke="#4A4238" stroke-width="0.9" opacity="0.5" stroke-linecap="round"></path><path d="M-8.3,-40 Q0,-41.5 8.3,-40 L8,-22 Q0,-23.5 -8,-22 Z" fill="#F2F1EA" opacity="0.95" stroke-linecap="round"></path><path d="M-5.5,-34 Q0,-35 5.5,-34" stroke="#8DA89A" stroke-width="1.2" fill="none" opacity="0.85" stroke-linecap="round"></path><path d="M-4.5,-28 Q0,-29 4.5,-28" stroke="#B3AC9C" stroke-width="1" fill="none" opacity="0.7" stroke-linecap="round"></path></svg>