<svg xmlns="http://www.w3.org/2000/svg" viewBox="-13.5 -55.0 27.0 55.0" width="27.0" height="55.0"><path d="M-9,0 Q0,-1.5 9,0 Q5,-2.5 1.6,-3.5 L1.6,-20 Q10,-22.5 11.5,-32 Q12.5,-39 11.8,-46 L-11.8,-46 Q-12.5,-39 -11.5,-32 Q-10,-22.5 -1.6,-20 L-1.6,-3.5 Q-5,-2.5 -9,0 Z" fill="#B3AC9C" opacity="0.5" stroke-linecap="round"></path><path d="M-11.2,-40.5 Q-11.6,-35 -10.6,-31 Q-9,-24 -1.5,-22 Q-0.02,-21.7 0.02,-21.7 Q1.5,-22 6,-23.5 Q10,-25.5 10.7,-31.5 Q11.4,-36 11.1,-40.5 Z" fill="#7A2E3F" opacity="0.9" stroke-linecap="round"></path><path d="M-8.5,-39 Q-8.8,-31 -5.5,-26.5 Q-7,-25.5 -8.2,-28 Q-10.4,-32.5 -10.2,-39 Z" fill="#F2F1EA" opacity="0.28" stroke-linecap="round"></path><ellipse cx="0" cy="-40.7" rx="11.4" ry="1.8" fill="#9A4A58" opacity="0.75"></ellipse></svg>