<svg xmlns="http://www.w3.org/2000/svg" viewBox="-10.5 -76.0 21.0 76.0" width="21.0" height="76.0"><path d="M-9,0 Q-10,-24 -9.5,-44 Q-9.2,-50 -5.5,-53 Q-3,-55 -3,-59 L-3,-70 L3,-70 L3,-59 Q3,-55 5.5,-53 Q9.2,-50 9.5,-44 Q10,-24 9,0 Z" fill="#35543F" opacity="0.94" stroke-linecap="round"></path><path d="M-6.5,-4 Q-7.5,-24 -7,-43 Q-6.8,-48 -4.5,-50.5 Q-6,-44 -6,-36 Q-6,-18 -5,-4 Z" fill="#F2F1EA" opacity="0.22" stroke-linecap="round"></path><path d="M-3.5,-70 L3.5,-70 L3.5,-74.5 Q0,-76 -3.5,-74.5 Z" fill="#7A2E3F" opacity="0.9" stroke-linecap="round"></path><path d="M-9.3,-38 Q0,-39.5 9.3,-38 L9,-22 Q0,-23.5 -9,-22 Z" fill="#F2F1EA" opacity="0.95" stroke-linecap="round"></path><path d="M0,-33.5 Q1.8,-30.5 1.8,-29 A 1.9 1.9 0 1 1 -1.8,-29 Q-1.8,-30.5 0,-33.5 Z" fill="#205E40" opacity="0.85"></path><path d="M-6,-26.5 Q0,-27.5 6,-26.5" stroke="#B3AC9C" stroke-width="1.2" fill="none" opacity="0.8" stroke-linecap="round"></path></svg>